<svg xmlns="http://www.w3.org/2000/svg" viewBox="0 0 340 240"><defs><linearGradient id="water" x2="0" y2="1"><stop stop-color="#b7f3fc"/><stop offset="1" stop-color="#60cbdc"/></linearGradient><linearGradient id="skin" x2="1" y2="1"><stop stop-color="#ffdbc0"/><stop offset="1" stop-color="#d99365"/></linearGradient></defs><ellipse cx="172" cy="130" rx="158" ry="94" fill="#a6e5f2"/><path d="M40 156q15-8 30 0t30 0m135-30q15-8 30 0t30 0" fill="none" stroke="#fff" stroke-width="3" opacity=".65"/><path d="M170 96l-34 20 18 15m27-35 32 20-17 15m-24 32-30 25 18 17m24-42 29 25-18 17" fill="none" stroke="#efb58d" stroke-width="14" stroke-linecap="round"/><path d="M159 90h34l2 60h-38z" fill="#efb58d"/><path d="M156 142h39l-5 24h-28z" fill="#1466df"/><ellipse cx="176" cy="66" rx="20" ry="24" fill="#efb58d"/><path d="M156 64a20 24 0 0 1 40 0q-20-8-40 0" fill="#ef5965"/><path d="M157 66h39" stroke="#184d70" stroke-width="3"/><path d="M168 78q8 4 16 0" fill="none" stroke="#a9664b" stroke-width="2"/><path d="M96 190a17 17 0 1 0 0-24m0 0 8 4m-8-4 2 9m151-10a17 17 0 1 0 0 25m0 0-8-4m8 4-2-9" fill="none" stroke="#197b9c" stroke-width="3" stroke-linecap="round"/><path d="M87 124q14-9 28 0m106 0q14-9 28 0" fill="none" stroke="#197b9c" stroke-width="3"/><text x="170" y="232" text-anchor="middle" fill="#123e59" font-size="12" font-family="sans-serif" font-weight="bold">DEBOUT · TÊTE HORS DE L’EAU</text></svg>